PathFileType	4	(X/Y/Z)	C:/Users/beibeiliu/ov580/test_trc/capture2\sequence.16_training_dense_right.trc
DataRate	CameraRate	NumFrames	NumMarkers	Units	OrigDataRate	OrigDataStartFrame	OrigNumFrames
120	120	18	19	mm	120	51	400
Frame#	Time	ThumbCMC			ThumbMCP			ThumbIP			ThumbTip			IndexMCP			IndexPIP			IndexTip			MiddleMCP			MiddlePIP			MiddleTip			RingMCP			RingPIP			RingTip			PinkyMCP			PinkyPIP			PinkyTip			BackHand1			BackHand2			BackHand3	
		X0	Y0	Z0	X1	Y1	Z1	X2	Y2	Z2	X3	Y3	Z3	X4	Y4	Z4	X5	Y5	Z5	X6	Y6	Z6	X7	Y7	Z7	X8	Y8	Z8	X9	Y9	Z9	X10	Y10	Z10	X11	Y11	Z11	X12	Y12	Z12	X13	Y13	Z13	X14	Y14	Z14	X15	Y15	Z15	X16	Y16	Z16	X17	Y17	Z17	X18	Y18	Z18	
50	0.416667	182.561	40.9125	-32.3989	186.808	58.3303	-50.4354	193.402	66.785	-70.7271	201.68	74.9906	-91.3242	158.577	21.1947	-101.456	149.389	23.8256	-124.992	136.564	23.5666	-145.765	128.323	35.2258	-93.96	117.352	59.9752	-82.2744	128.568	53.8439	-46.6089	110.493	27.3758	-80.7324	107.103	52.8145	-65.0324	128.389	40.986	-37.1707	102.902	19.7547	-68.8063	102.324	46.0232	-56.6908	119.326	38.9052	-30.2586	141.026	-8.03335	-48.8274	150.48	-10.0827	-18.357	170.218	6.14292	-35.7596	
51	0.425	183.503	41.0569	-28.3462	184.242	55.1707	-52.4953	190.494	65.0162	-71.4499	199.779	73.2182	-91.5552	157.135	19.6118	-97.5953	147.599	22.9795	-120.695	138.001	24.402	-146.579	129.91	30.3919	-91.5402	116.614	58.9135	-83.5351	133.411	56.9448	-47.8612	110.151	25.3769	-79.9853	110.446	54.6302	-63.8466	128.223	41.5086	-37.386	102.341	20.3968	-70.0115	97.3189	43.4726	-55.8017	122.57	39.3362	-30.8007	139.838	-9.11845	-47.9682	146.462	-11.9034	-15.275	172.056	5.39153	-36.8658	
52	0.433333	182.904	39.4281	-29.3399	185.162	56.6663	-50.1702	189.495	64.3435	-72.8701	199.908	73.5245	-88.6491	155.178	19.7806	-100.737	149.324	23.64	-124.901	132.707	22.6573	-147.901	126.905	31.4028	-93.124	117.871	59.1472	-83.6317	129.396	54.62	-47.5306	112.174	28.6646	-81.4758	108.455	52.7885	-64.5367	128.441	41.8359	-37.5659	103.2	18.3606	-69.5405	100.233	44.8405	-57.0762	121.037	41.0459	-32.6199	138.194	-11.0647	-45.5915	150.083	-9.22524	-13.0383	168.855	5.30238	-35.9829	
53	0.441667	182.205	38.694	-27.9674	186.585	56.0805	-48.4692	191.549	64.5883	-69.2272	201.11	72.9701	-91.6406	157.162	19.098	-96.9718	147.741	20.9763	-119.486	134.2	21.6768	-142.655	130.849	30.3663	-92.4909	115.355	59.1851	-80.2885	128.068	54.56	-47.5769	109.757	27.4699	-81.0628	106.315	51.6101	-64.3701	131.356	43.0774	-39.8382	101.001	16.1639	-68.3411	96.4906	42.4174	-55.3214	120.552	42.3213	-33.6017	139.537	-11.9745	-42.855	149.567	-10.9561	-13.932	172.459	4.71709	-36.771	
54	0.45	179.191	37.6509	-26.9847	182.155	54.0729	-46.6773	191.229	63.2348	-71.9624	198.648	71.6853	-87.1672	155.848	17.9003	-100.37	148.521	21.6533	-124.807	136.708	21.8594	-143.893	129.33	31.0077	-93.1548	116.662	58.8165	-79.9314	130.846	56.6808	-49.8652	113.204	28.2911	-81.3382	105.446	50.6057	-63.8789	127.168	44.122	-39.0791	101.533	19.2825	-70.0782	100.91	43.4876	-54.6206	123.732	36.6479	-29.8446	140.763	-9.59531	-46.1169	148.249	-11.6547	-13.0806	172.003	4.23017	-39.0124	
55	0.458333	178.625	37.2813	-27.6718	181.927	52.808	-50.3401	191.37	63.5121	-69.2502	198.598	71.2	-91.238	159.16	19.2831	-99.2725	148.521	20.8092	-122.219	137.715	21.4056	-142.908	130.342	29.3479	-92.6079	117.427	56.6612	-82.7654	131.942	52.5361	-47.6147	112.461	23.1814	-80.2037	111.499	52.3724	-65.1815	126.826	41.9023	-36.9401	103.897	16.041	-69.2673	100.165	42.7146	-53.374	124.507	38.823	-33.542	140.925	-12.0629	-46.1145	149.202	-11.0093	-12.5906	174.141	6.23502	-38.0957	
56	0.466667	180.181	37.6568	-27.7666	183.324	55.094	-49.4374	191.021	62.6499	-71.4945	200.113	71.7748	-89.328	158.535	17.8195	-98.4995	152.805	21.493	-120.024	139.09	21.6387	-145.222	131.969	27.7767	-92.4397	116.193	53.3359	-84.4269	131.275	53.7148	-50.164	117.229	23.1717	-80.9984	106.749	49.6526	-64.8278	125.181	42.2323	-38.2335	106.759	15.742	-70.2745	99.7111	41.0623	-55.1664	122.15	34.4367	-31.9251	141.818	-11.9015	-42.7463	151.603	-11.8689	-13.3781	172.301	5.01258	-36.9119	
57	0.475	181.703	39.6202	-26.7175	185.402	55.493	-51.4278	194.692	65.3649	-74.3255	199.309	71.4303	-87.3695	163.092	19.3771	-97.3398	152.781	19.5778	-121.543	138.225	20.9044	-145.111	131.11	26.8651	-91.7482	117.437	55.6056	-82.3981	130.314	52.5111	-49.7362	115.583	20.7207	-80.4259	107.561	48.3086	-67.402	130.183	44.0275	-40.8791	103.612	14.9905	-71.1289	103.525	40.368	-58.6241	127.062	34.7661	-32.8749	147.253	-10.5393	-43.7668	152.322	-11.6735	-15.9654	173.581	5.37219	-36.5395	
58	0.483333	181.866	39.0604	-29.4738	185.648	56.7223	-48.0332	196.533	65.9153	-69.2474	201.604	72.5683	-88.923	162.506	18.922	-97.0086	156.419	21.6217	-124.327	143.1	22.0133	-145.468	134.149	25.9687	-91.772	116.126	54.2393	-81.3713	135.404	54.0404	-49.2731	120.384	22.9106	-82.713	108.627	47.4475	-65.2682	128.781	43.9851	-41.1298	105.617	13.5914	-70.6392	103.346	40.0343	-56.8301	125.608	35.9415	-32.1968	145.106	-11.0159	-42.1278	154.399	-11.5894	-11.1638	175.796	5.84981	-34.8824	
59	0.491667	181.79	39.3258	-28.8667	188.873	57.7552	-48.6986	192.575	64.0034	-73.397	201.879	73.3896	-88.0166	166.974	20.855	-98.7323	156.807	20.7701	-122.36	142.224	19.44	-145.855	133.537	28.9823	-94.0401	118.393	55.0245	-83.3403	131.691	54.8197	-50.6202	117.881	22.0194	-83.3506	108.747	47.9682	-66.6477	127.619	41.9071	-39.9736	107.003	11.7636	-70.5914	102.358	38.7692	-56.7791	125.227	35.8123	-35.9525	146.722	-9.96806	-47.775	156.035	-11.628	-12.8365	176.776	4.88618	-34.9839	
60	0.5	185.632	42.5887	-27.1858	184.826	56.2862	-49.2819	195.012	66.8723	-71.4548	204.184	76.9666	-88.7502	166.137	18.5142	-100.84	158.765	22.3812	-126.624	147.357	21.4594	-149.676	138.779	26.9151	-93.6235	122.466	54.779	-86.7547	134.245	51.3699	-47.7258	117.439	23.3167	-84.324	110.347	45.978	-67.4526	129.861	40.3538	-39.8956	107.74	10.931	-70.1363	108.879	39.3163	-58.0556	124.958	34.0992	-33.1095	148.6	-12.3988	-46.4463	157.506	-12.1183	-14.5664	178.343	5.59357	-38.8544	
61	0.508333	185.234	42.5325	-30.7836	188.886	61.5087	-47.3858	196.244	71.0209	-72.1573	199.44	76.9401	-89.9665	170.338	21.6003	-97.3839	158.504	21.0681	-124.643	151.188	22.9675	-146.134	137.808	24.719	-91.9762	122.859	55.1261	-85.609	135.25	55.1429	-51.6428	123.839	22.5812	-84.3799	112.316	45.7682	-71.259	129.594	42.5209	-40.7396	112.718	13.5833	-73.1262	106.063	35.9477	-58.8173	132.644	33.1035	-34.4707	150.238	-10.9597	-47.5546	159.272	-11.308	-15.9184	182.541	9.36005	-38.0735	
62	0.516667	186.969	45.1651	-29.5547	186.494	62.4645	-48.8633	194.005	72.8082	-75.557	199.571	81.4749	-90.8849	169.811	21.8161	-97.2476	161.008	22.7693	-120.961	153.351	23.9529	-148.012	137.858	28.0135	-96.7717	123.358	53.4174	-87.015	134.802	51.8245	-49.8033	124.064	18.8433	-83.5514	115.554	47.3286	-69.0481	134.236	40.5851	-39.2568	112.892	8.73543	-72.4949	109.874	36.2382	-58.6572	133.982	32.7227	-37.2475	155.479	-10.0663	-45.5901	161.767	-11.9031	-13.7709	181.586	10.7102	-38.8066	
63	0.525	186.375	49.2657	-30.8639	185.048	65.6779	-50.2331	192.507	77.5482	-72.9562	197.374	88.1355	-93.0236	171.876	24.1347	-98.4115	167.795	28.5082	-125.964	152.73	24.1775	-148.34	141.769	26.7422	-94.8443	122.993	49.621	-88.6363	134.255	49.9042	-48.4777	127.266	17.1305	-83.8522	113.338	41.323	-69.3093	131.078	39.9007	-41.502	117.315	7.10517	-73.2022	111.279	32.0884	-62.0276	131.618	32.6059	-35.2632	160.55	-10.4155	-49.7135	166.847	-8.6154	-14.216	185.845	15.815	-39.0206	
64	0.533333	184.03	52.5487	-24.9737	184.003	70.8434	-51.2549	188.259	83.2066	-69.7091	192.245	91.5758	-91.9693	178.638	31.1188	-98.351	169.485	32.1955	-127.877	156.697	27.3881	-149.306	147.221	30.4994	-96.4585	122.185	47.2817	-86.9985	133.494	52.4195	-52.2272	131.689	17.3681	-85.7308	113.809	40.1814	-66.9459	131.918	40.5846	-42.898	123.694	6.83709	-75.358	112.687	29.944	-60.16	131.106	30.1674	-33.7044	165.014	-8.71389	-50.7361	172.055	-7.50209	-16.3522	187.713	18.3874	-36.7226	
65	0.541667	182.875	57.6261	-26.9994	177.74	71.7769	-49.0888	184.108	85.5526	-69.9705	186.238	95.3103	-88.6779	179.739	34.4346	-98.2984	169.066	31.4277	-125.832	160.94	29.001	-147.135	145.056	28.4942	-98.4833	122.757	45.2038	-88.2098	132.163	51.3186	-54.2116	135.363	19.9299	-87.9011	117.88	38.1155	-71.7218	136.2	39.7738	-43.2862	127.882	6.58009	-77.221	114.898	26.2975	-58.5516	133.841	29.1972	-37.2179	172.063	-5.54591	-48.8607	177.251	-1.71558	-15.9962	191.304	20.8938	-39.625	
66	0.55	180.229	61.964	-27.4595	173.327	75.1965	-47.8387	179.766	89.7864	-72.6813	180.861	98.3169	-90.0525	179.388	37.1679	-101.623	174.88	38.4329	-124.48	164.029	32.9858	-152.175	151.409	28.9724	-97.4868	122.803	42.9773	-89.3159	133.355	46.4506	-52.1265	136.135	17.4457	-90.0357	117.501	33.9117	-69.9303	134.664	37.5107	-44.4421	133.448	2.95897	-79.0025	117.262	20.43	-64.3816	136.405	24.4704	-35.4319	177.627	-4.42835	-53.2301	180.709	-0.0924085	-19.5285	192.155	27.9776	-36.9549	
67	0.558333	177.252	65.5721	-27.0135	169.042	77.0838	-49.0593	171.9	88.5275	-73.646	173.735	102.706	-88.3591	181.293	40.6957	-101.442	175.386	41.5295	-126.891	166.013	32.9393	-151.166	151.447	32.9769	-100.116	123.904	38.4163	-91.0469	130.004	43.2379	-55.0316	144.739	12.7851	-89.7112	120.311	27.8273	-75.4383	135.196	33.4314	-45.6675	138.833	-1.74584	-79.5275	122.257	19.8957	-62.6935	138.74	23.0824	-37.4417	184.15	1.42722	-50.9125	187	1.34016	-17.4207	194.84	35.2584	-39.9594	
